<svg width="32" height="29" viewBox="0 0 32 29" fill="none" xmlns="http://www.w3.org/2000/svg">
<path d="M6.6666 15.7083H22.4799L17.6399 20.9767C17.4136 21.2234 17.3047 21.5416 17.3372 21.8611C17.3697 22.1806 17.541 22.4753 17.8133 22.6804C18.0856 22.8855 18.4366 22.9842 18.7892 22.9547C19.1417 22.9253 19.4669 22.7701 19.6933 22.5233L26.3599 15.2733C26.4048 15.2157 26.4449 15.1551 26.4799 15.0921C26.4799 15.0317 26.4799 14.9954 26.5733 14.935C26.6337 14.7964 26.6653 14.649 26.6666 14.5C26.6653 14.351 26.6337 14.2035 26.5733 14.065C26.5733 14.0046 26.5733 13.9683 26.4799 13.9079C26.4449 13.8449 26.4048 13.7843 26.3599 13.7267L19.6933 6.47666C19.5679 6.34026 19.4109 6.23057 19.2335 6.15538C19.056 6.0802 18.8625 6.04137 18.6666 6.04166C18.3551 6.04111 18.0531 6.13944 17.8133 6.31958C17.6783 6.42101 17.5666 6.5456 17.4848 6.68618C17.403 6.82677 17.3526 6.9806 17.3365 7.13886C17.3204 7.29712 17.339 7.45671 17.391 7.60848C17.4431 7.76025 17.5277 7.90123 17.6399 8.02333L22.4799 13.2917H6.6666C6.31298 13.2917 5.97384 13.419 5.72379 13.6456C5.47374 13.8722 5.33327 14.1795 5.33327 14.5C5.33327 14.8205 5.47374 15.1278 5.72379 15.3544C5.97384 15.581 6.31298 15.7083 6.6666 15.7083Z" fill="#F2F2F2"/>
</svg>
