<svg width="28" height="28" viewBox="0 0 28 28" fill="none" xmlns="http://www.w3.org/2000/svg">
<g clip-path="url(#clip0_0_102)" filter="url(#filter0_d_0_102)">
<path d="M11.5 18.3333C11.9603 18.3333 12.3334 17.9602 12.3334 17.5C12.3334 17.0397 11.9603 16.6666 11.5 16.6666C11.0398 16.6666 10.6667 17.0397 10.6667 17.5C10.6667 17.9602 11.0398 18.3333 11.5 18.3333Z" stroke="black" stroke-width="2" stroke-linecap="round" stroke-linejoin="round"/>
<path d="M20.6666 18.3333C21.1269 18.3333 21.5 17.9602 21.5 17.5C21.5 17.0397 21.1269 16.6666 20.6666 16.6666C20.2064 16.6666 19.8333 17.0397 19.8333 17.5C19.8333 17.9602 20.2064 18.3333 20.6666 18.3333Z" stroke="black" stroke-width="2" stroke-linecap="round" stroke-linejoin="round"/>
<path d="M4.83331 0.833374H8.16665L10.4 11.9917C10.4762 12.3754 10.6849 12.72 10.9896 12.9653C11.2943 13.2106 11.6756 13.3409 12.0666 13.3334H20.1666C20.5577 13.3409 20.939 13.2106 21.2437 12.9653C21.5484 12.72 21.7571 12.3754 21.8333 11.9917L23.1666 5.00004H8.99998" stroke="black" stroke-width="2" stroke-linecap="round" stroke-linejoin="round"/>
</g>
<defs>
<filter id="filter0_d_0_102" x="0" y="0" width="28" height="28" filterUnits="userSpaceOnUse" color-interpolation-filters="sRGB">
<feFlood flood-opacity="0" result="BackgroundImageFix"/>
<feColorMatrix in="SourceAlpha" type="matrix" values="0 0 0 0 0 0 0 0 0 0 0 0 0 0 0 0 0 0 127 0" result="hardAlpha"/>
<feOffset dy="4"/>
<feGaussianBlur stdDeviation="2"/>
<feComposite in2="hardAlpha" operator="out"/>
<feColorMatrix type="matrix" values="0 0 0 0 0 0 0 0 0 0 0 0 0 0 0 0 0 0 0.25 0"/>
<feBlend mode="normal" in2="BackgroundImageFix" result="effect1_dropShadow_0_102"/>
<feBlend mode="normal" in="SourceGraphic" in2="effect1_dropShadow_0_102" result="shape"/>
</filter>
<clipPath id="clip0_0_102">
<rect width="20" height="20" fill="white" transform="translate(4)"/>
</clipPath>
</defs>
</svg>
